Coordinates
version=1
nRows=8
nColumns=63
inDegrees=yes

Units are S.I. units (second, meters, Newtons, ...)
If the header above contains a line with 'inDegrees', this indicates whether rotational values are in degrees (yes) or radians (no).

endheader
time	pelvis_tilt	pelvis_list	pelvis_rotation	pelvis_tx	pelvis_ty	pelvis_tz	hip_flexion_r	hip_adduction_r	hip_rotation_r	knee_angle_r	knee_angle_r_beta	ankle_angle_r	subtalar_angle_r	mtp_angle_r	hip_flexion_l	hip_adduction_l	hip_rotation_l	knee_angle_l	knee_angle_l_beta	ankle_angle_l	subtalar_angle_l	mtp_angle_l	L5_S1_Flex_Ext	L5_S1_Lat_Bending	L5_S1_axial_rotation	L4_L5_Flex_Ext	L4_L5_Lat_Bending	L4_L5_axial_rotation	L3_L4_Flex_Ext	L3_L4_Lat_Bending	L3_L4_axial_rotation	L2_L3_Flex_Ext	L2_L3_Lat_Bending	L2_L3_axial_rotation	L1_L2_Flex_Ext	L1_L2_Lat_Bending	L1_L2_axial_rotation	L1_T12_Flex_Ext	L1_T12_Lat_Bending	L1_T12_axial_rotation	Abs_r3	Abs_r2	Abs_r1	Abs_t1	Abs_t2	neck_flexion	neck_bending	neck_rotation	arm_flex_r	arm_add_r	arm_rot_r	elbow_flex_r	pro_sup_r	wrist_flex_r	wrist_dev_r	arm_flex_l	arm_add_l	arm_rot_l	elbow_flex_l	pro_sup_l	wrist_flex_l	wrist_dev_l
      4.56666667	      1.32774994	      0.29200440	     99.85358626	      0.19339208	      0.88210610	      0.52723114	     -5.36201806	      3.02220796	     -5.95334834	      6.57457246	      0.11474794	     19.28152896	    -16.21179372	      0.00000000	     -6.99796746	     -2.74674161	     20.45444964	      0.96853035	      0.01690404	     23.11986896	    -14.97724516	      0.00000000	     -0.44504005	      0.24768756	     -0.93681639	     -0.82648388	      0.32942446	     -0.99536742	     -0.73115630	      0.60222754	     -0.99536742	     -0.50863628	      0.60222754	     -0.81971434	     -0.41326419	      0.50508448	     -0.76116332	     -0.25429589	      0.38366804	     -0.70261230	     -3.17887659	      2.80189126	     -5.21029174	      0.00000000	      0.00000000	     22.22515857	     -3.67343375	     -8.38085231	      7.82484223	    -12.46521818	    165.66535298	      6.83262555	      5.02748181	     -3.40069865	     -6.91806508	      3.38389780	    -10.77609229	    158.62867748	      0.56497867	      4.60152720	    -15.26741838	    -10.80246729
      4.58333333	      1.44447576	      0.32974419	    100.03868747	      0.19334382	      0.88235441	      0.52698386	     -5.41460618	      3.19344228	     -6.39447145	      6.47611354	      0.11302950	     19.08622827	    -16.11859309	      0.00000000	     -6.96331843	     -2.88472212	     20.83595282	      1.09668087	      0.01914069	     22.92135140	    -15.30912065	      0.00000000	     -0.44971411	      0.26235477	     -0.97234601	     -0.83516407	      0.34893184	     -1.03311763	     -0.73883531	      0.63788938	     -1.03311763	     -0.51397825	      0.63788938	     -0.85080276	     -0.41760452	      0.53499384	     -0.79003113	     -0.25696664	      0.40638754	     -0.72925950	     -3.21226290	      2.96780960	     -5.40789678	      0.00000000	      0.00000000	     22.16038185	     -3.37385366	     -8.47132080	      7.76359081	    -12.51788706	    165.40346184	      6.89144258	      4.74814195	     -3.10750582	     -6.78347252	      3.38884767	    -10.77805407	    158.87802412	      0.56205995	      4.71087246	    -15.36988402	    -10.93349730
      4.60000000	      1.51489477	      0.36654886	    100.14491397	      0.19338844	      0.88267150	      0.52685571	     -5.43550954	      3.30383994	     -6.60522572	      6.43167986	      0.11225399	     18.88578653	    -16.19006220	      0.00000000	     -6.91895158	     -2.96289603	     21.01201233	      1.23659868	      0.02158272	     22.96836792	    -15.44854162	      0.00000000	     -0.45079494	      0.27049868	     -1.00084666	     -0.83717129	      0.35976324	     -1.06339958	     -0.74061101	      0.65769048	     -1.06339958	     -0.51521354	      0.65769048	     -0.87574083	     -0.41860818	      0.55160090	     -0.81318791	     -0.25758423	      0.41900245	     -0.75063500	     -3.21998319	      3.05993511	     -5.56640889	      0.00000000	      0.00000000	     21.98446572	     -3.11471806	     -8.58891672	      7.68419435	    -12.49789259	    166.11339226	      6.76184263	      4.47286395	     -3.01463690	     -6.66137139	      3.39250578	    -10.79281761	    158.95634699	      0.55264986	      5.01925519	    -15.20929090	    -10.88149968
      4.61666667	      1.57295878	      0.43661556	    100.16794418	      0.19349895	      0.88303722	      0.52666275	     -5.49415336	      3.40322045	     -6.62077202	      6.40173644	      0.11173138	     18.64625659	    -16.41666165	      0.00000000	     -6.91457319	     -3.02210028	     20.89206854	      1.38130288	      0.02410828	     23.21941346	    -15.34182524	      0.00000000	     -0.45544960	      0.27799570	     -1.01040134	     -0.84581546	      0.36973428	     -1.07355142	     -0.74825815	      0.67591874	     -1.07355142	     -0.52053335	      0.67591874	     -0.88410117	     -0.42293050	      0.56688883	     -0.82095109	     -0.26024390	      0.43061533	     -0.75780100	     -3.25323096	      3.14474292	     -5.61954912	      0.00000000	      0.00000000	     21.83086595	     -3.11249205	     -8.92548053	      7.60148396	    -12.45949839	    167.20545872	      6.51751566	      4.52921191	     -3.01097136	     -6.66230574	      3.42579805	    -10.81149484	    159.26303737	      0.53668319	      5.13101238	    -14.83806129	    -10.75710796
      4.63333333	      1.61169403	      0.48274319	    100.00155199	      0.19384346	      0.88335133	      0.52644747	     -5.51022895	      3.45393702	     -6.47348234	      6.41689566	      0.11199596	     18.51410287	    -16.51513928	      0.00000000	     -6.91169301	     -3.02860485	     20.46293178	      1.53951097	      0.02686954	     23.47895597	    -15.14726065	      0.00000000	     -0.46211021	      0.28352149	     -0.98442149	     -0.85818487	      0.37708358	     -1.04594783	     -0.75920086	      0.68935415	     -1.04594783	     -0.52814576	      0.68935415	     -0.86136880	     -0.42911554	      0.57815702	     -0.79984246	     -0.26404977	      0.43917479	     -0.73831611	     -3.30080702	      3.20725181	     -5.47505698	      0.00000000	      0.00000000	     21.86213448	     -3.28337045	     -9.30753336	      7.51614519	    -12.38364583	    169.02757985	      6.16240997	      4.39516679	     -3.32321914	     -6.65507737	      3.48121827	    -10.83440078	    159.62071350	      0.52563066	      5.08736792	    -14.47636344	    -10.68591156
      4.65000000	      1.65460239	      0.47099090	     99.91537783	      0.19400957	      0.88351208	      0.52622259	     -5.46272365	      3.49098973	     -6.47619047	      6.47203717	      0.11295836	     18.46524777	    -16.48105795	      0.00000000	     -6.81735032	     -3.03684518	     20.20411713	      1.75730648	      0.03067078	     23.63194953	    -15.02794296	      0.00000000	     -0.46490520	      0.29054395	     -0.96251209	     -0.86337545	      0.38642346	     -1.02266909	     -0.76379276	      0.70642857	     -1.02266909	     -0.53134015	      0.70642857	     -0.84219808	     -0.43171097	      0.59247723	     -0.78204107	     -0.26564683	      0.45005258	     -0.72188407	     -3.32077136	      3.28669131	     -5.35320347	      0.00000000	      0.00000000	     22.00305165	     -3.75483022	     -9.87127534	      7.38395257	    -12.35897005	    170.76627163	      5.67101143	      4.24211476	     -3.48026095	     -6.71595263	      3.56096244	    -10.83259202	    159.68387487	      0.51550643	      5.16818154	    -14.04973247	    -10.64751613
      4.66666667	      1.65519268	      0.44966462	     99.53309308	      0.19461515	      0.88359988	      0.52591662	     -5.39202941	      3.45629341	     -6.04024396	      6.57905012	      0.11482609	     18.49276253	    -16.52500163	      0.00000000	     -6.79243279	     -2.97534402	     19.83906614	      1.92211500	      0.03354724	     23.56637662	    -15.20441347	      0.00000000	     -0.47599058	      0.29251096	     -0.90115808	     -0.88396210	      0.38903958	     -0.95748046	     -0.78200492	      0.71121115	     -0.95748046	     -0.54400963	      0.71121115	     -0.78851332	     -0.44200485	      0.59648835	     -0.73219094	     -0.27198102	      0.45309948	     -0.67586856	     -3.39995309	      3.30894250	     -5.01197088	      0.00000000	      0.00000000	     22.28137765	     -4.13675919	    -10.25753362	      7.38358400	    -12.32743812	    172.23189224	      5.33099948	      4.26118273	     -3.84117668	     -6.69912457	      3.59735417	    -10.83523300	    159.02705328	      0.51273358	      5.36592354	    -13.63340749	    -10.75378713
      4.68333333	      1.63328923	      0.39278493	     99.11915078	      0.19532900	      0.88354060	      0.52556893	     -5.30986881	      3.39624243	     -5.51554477	      6.64834589	      0.11603553	     18.56206258	    -16.58096980	      0.00000000	     -6.73695753	     -2.88938060	     19.19219562	      2.09909314	      0.03663609	     23.55748872	    -15.03115697	      0.00000000	     -0.48696093	      0.29149329	     -0.81901788	     -0.90433515	      0.38768607	     -0.87020650	     -0.80002812	      0.70873678	     -0.87020650	     -0.55654765	      0.70873678	     -0.71664065	     -0.45219192	      0.59441311	     -0.66545203	     -0.27824948	      0.45152310	     -0.61426341	     -3.47831326	      3.29743037	     -4.55513176	      0.00000000	      0.00000000	     22.55097433	     -4.47039838	    -10.58143959	      7.38063750	    -12.33829749	    172.87606078	      5.06601733	      4.42185424	     -4.17681001	     -6.78331945	      3.67853922	    -10.82993974	    159.02854575	      0.50257083	      5.17092909	    -13.38362303	    -10.72711320
